<svg width="49" height="12" viewBox="0 0 49 12" fill="none" xmlns="http://www.w3.org/2000/svg">
<path d="M0.426136 1.79403V0.272727H7.59375V1.79403H4.92188V9H3.09801V1.79403H0.426136ZM10.5554 5.21591V9H8.74006V0.272727H10.5043V3.60938H10.581C10.7287 3.22301 10.9673 2.92045 11.2969 2.7017C11.6264 2.48011 12.0398 2.36932 12.5369 2.36932C12.9915 2.36932 13.3878 2.46875 13.7259 2.66761C14.0668 2.86364 14.331 3.14631 14.5185 3.51562C14.7088 3.8821 14.8026 4.32102 14.7997 4.83239V9H12.9844V5.15625C12.9872 4.75284 12.8849 4.43892 12.6776 4.21449C12.473 3.99006 12.1861 3.87784 11.8168 3.87784C11.5696 3.87784 11.3509 3.9304 11.1605 4.03551C10.973 4.14062 10.8253 4.29403 10.7173 4.49574C10.6122 4.6946 10.5582 4.93466 10.5554 5.21591ZM18.0948 9.12358C17.6772 9.12358 17.305 9.05114 16.9783 8.90625C16.6516 8.75852 16.3931 8.54119 16.2028 8.25426C16.0153 7.96449 15.9215 7.60369 15.9215 7.17188C15.9215 6.80824 15.9883 6.50284 16.1218 6.25568C16.2553 6.00852 16.4371 5.80966 16.6673 5.65909C16.8974 5.50852 17.1587 5.39489 17.4513 5.31818C17.7468 5.24148 18.0565 5.1875 18.3803 5.15625C18.761 5.11648 19.0678 5.07955 19.3008 5.04545C19.5337 5.00852 19.7028 4.95455 19.8079 4.88352C19.913 4.8125 19.9656 4.70739 19.9656 4.56818V4.54261C19.9656 4.27273 19.8803 4.06392 19.7099 3.91619C19.5423 3.76847 19.3036 3.6946 18.994 3.6946C18.6673 3.6946 18.4073 3.76705 18.2141 3.91193C18.021 4.05398 17.8931 4.23295 17.8306 4.44886L16.1516 4.3125C16.2369 3.91477 16.4045 3.57102 16.6545 3.28125C16.9045 2.98864 17.2269 2.7642 17.6218 2.60795C18.0195 2.44886 18.4798 2.36932 19.0025 2.36932C19.3661 2.36932 19.7141 2.41193 20.0465 2.49716C20.3817 2.58239 20.6786 2.71449 20.9371 2.89347C21.1985 3.07244 21.4045 3.30256 21.555 3.58381C21.7056 3.86222 21.7809 4.19602 21.7809 4.58523V9H20.0593V8.09233H20.0082C19.9031 8.29688 19.7624 8.47727 19.5863 8.63352C19.4102 8.78693 19.1985 8.90767 18.9513 8.99574C18.7042 9.08097 18.4187 9.12358 18.0948 9.12358ZM18.6147 7.87074C18.8817 7.87074 19.1175 7.81818 19.3221 7.71307C19.5266 7.60511 19.6871 7.46023 19.8036 7.27841C19.9201 7.09659 19.9783 6.89062 19.9783 6.66051V5.96591C19.9215 6.00284 19.8434 6.03693 19.744 6.06818C19.6474 6.09659 19.538 6.12358 19.4158 6.14915C19.2937 6.17187 19.1715 6.19318 19.0494 6.21307C18.9272 6.23011 18.8164 6.24574 18.717 6.25994C18.5039 6.29119 18.3178 6.34091 18.1587 6.40909C17.9996 6.47727 17.8761 6.5696 17.788 6.68608C17.6999 6.79972 17.6559 6.94176 17.6559 7.11222C17.6559 7.35938 17.7454 7.5483 17.9244 7.67898C18.1062 7.80682 18.3363 7.87074 18.6147 7.87074ZM23.1893 9V2.45455H24.9492V3.59659H25.0174C25.1367 3.19034 25.337 2.88352 25.6183 2.67614C25.8995 2.46591 26.2234 2.3608 26.5898 2.3608C26.6808 2.3608 26.7788 2.36648 26.8839 2.37784C26.989 2.3892 27.0813 2.40483 27.1609 2.42472V4.03551C27.0756 4.00994 26.9577 3.98722 26.8072 3.96733C26.6566 3.94744 26.5188 3.9375 26.3938 3.9375C26.1268 3.9375 25.8881 3.99574 25.6779 4.11222C25.4705 4.22585 25.3058 4.38494 25.1836 4.58949C25.0643 4.79403 25.0046 5.02983 25.0046 5.29688V9H23.1893ZM29.7784 9.12358C29.3608 9.12358 28.9886 9.05114 28.6619 8.90625C28.3352 8.75852 28.0767 8.54119 27.8864 8.25426C27.6989 7.96449 27.6051 7.60369 27.6051 7.17188C27.6051 6.80824 27.6719 6.50284 27.8054 6.25568C27.9389 6.00852 28.1207 5.80966 28.3509 5.65909C28.581 5.50852 28.8423 5.39489 29.1349 5.31818C29.4304 5.24148 29.7401 5.1875 30.0639 5.15625C30.4446 5.11648 30.7514 5.07955 30.9844 5.04545C31.2173 5.00852 31.3864 4.95455 31.4915 4.88352C31.5966 4.8125 31.6491 4.70739 31.6491 4.56818V4.54261C31.6491 4.27273 31.5639 4.06392 31.3935 3.91619C31.2259 3.76847 30.9872 3.6946 30.6776 3.6946C30.3509 3.6946 30.0909 3.76705 29.8977 3.91193C29.7045 4.05398 29.5767 4.23295 29.5142 4.44886L27.8352 4.3125C27.9205 3.91477 28.0881 3.57102 28.3381 3.28125C28.5881 2.98864 28.9105 2.7642 29.3054 2.60795C29.7031 2.44886 30.1634 2.36932 30.6861 2.36932C31.0497 2.36932 31.3977 2.41193 31.7301 2.49716C32.0653 2.58239 32.3622 2.71449 32.6207 2.89347C32.8821 3.07244 33.0881 3.30256 33.2386 3.58381C33.3892 3.86222 33.4645 4.19602 33.4645 4.58523V9H31.7429V8.09233H31.6918C31.5866 8.29688 31.446 8.47727 31.2699 8.63352C31.0938 8.78693 30.8821 8.90767 30.6349 8.99574C30.3878 9.08097 30.1023 9.12358 29.7784 9.12358ZM30.2983 7.87074C30.5653 7.87074 30.8011 7.81818 31.0057 7.71307C31.2102 7.60511 31.3707 7.46023 31.4872 7.27841C31.6037 7.09659 31.6619 6.89062 31.6619 6.66051V5.96591C31.6051 6.00284 31.527 6.03693 31.4276 6.06818C31.331 6.09659 31.2216 6.12358 31.0994 6.14915C30.9773 6.17187 30.8551 6.19318 30.733 6.21307C30.6108 6.23011 30.5 6.24574 30.4006 6.25994C30.1875 6.29119 30.0014 6.34091 29.8423 6.40909C29.6832 6.47727 29.5597 6.5696 29.4716 6.68608C29.3835 6.79972 29.3395 6.94176 29.3395 7.11222C29.3395 7.35938 29.429 7.5483 29.608 7.67898C29.7898 7.80682 30.0199 7.87074 30.2983 7.87074ZM36.6882 5.21591V9H34.8729V2.45455H36.603V3.60938H36.6797C36.8246 3.22869 37.0675 2.92756 37.4084 2.70597C37.7493 2.48153 38.1626 2.36932 38.6484 2.36932C39.103 2.36932 39.4993 2.46875 39.8374 2.66761C40.1754 2.86648 40.4382 3.15057 40.6257 3.51989C40.8132 3.88636 40.907 4.32386 40.907 4.83239V9H39.0916V5.15625C39.0945 4.75568 38.9922 4.44318 38.7848 4.21875C38.5774 3.99148 38.2919 3.87784 37.9283 3.87784C37.6839 3.87784 37.468 3.9304 37.2805 4.03551C37.0959 4.14062 36.951 4.29403 36.8459 4.49574C36.7436 4.6946 36.6911 4.93466 36.6882 5.21591ZM45.2866 11.5909C44.6985 11.5909 44.1942 11.5099 43.7738 11.348C43.3562 11.1889 43.0238 10.9716 42.7766 10.696C42.5295 10.4205 42.369 10.1108 42.2951 9.76705L43.9741 9.54119C44.0252 9.67188 44.1062 9.79403 44.217 9.90767C44.3278 10.0213 44.4741 10.1122 44.6559 10.1804C44.8406 10.2514 45.065 10.2869 45.3292 10.2869C45.7241 10.2869 46.0494 10.1903 46.305 9.99716C46.5636 9.80682 46.6928 9.48722 46.6928 9.03835V7.84091H46.6161C46.5366 8.02273 46.4173 8.1946 46.2582 8.35653C46.0991 8.51847 45.8945 8.65057 45.6445 8.75284C45.3945 8.85511 45.0962 8.90625 44.7496 8.90625C44.2582 8.90625 43.8107 8.79261 43.4073 8.56534C43.0067 8.33523 42.6871 7.98437 42.4485 7.51278C42.2127 7.03835 42.0948 6.43892 42.0948 5.71449C42.0948 4.97301 42.2156 4.35369 42.457 3.85653C42.6985 3.35937 43.0195 2.98722 43.4201 2.74006C43.8235 2.4929 44.2653 2.36932 44.7454 2.36932C45.1119 2.36932 45.4187 2.43182 45.6658 2.55682C45.913 2.67898 46.1119 2.83239 46.2624 3.01705C46.4158 3.19886 46.5337 3.37784 46.6161 3.55398H46.6843V2.45455H48.4869V9.06392C48.4869 9.62074 48.3505 10.0866 48.0778 10.4616C47.805 10.8366 47.4272 11.1179 46.9442 11.3054C46.4641 11.4957 45.9116 11.5909 45.2866 11.5909ZM45.3249 7.54261C45.6175 7.54261 45.8647 7.47017 46.0664 7.32528C46.271 7.17756 46.4272 6.96733 46.5352 6.6946C46.646 6.41903 46.7013 6.08949 46.7013 5.70597C46.7013 5.32244 46.6474 4.99006 46.5394 4.70881C46.4315 4.42472 46.2752 4.20455 46.0707 4.0483C45.8661 3.89205 45.6175 3.81392 45.3249 3.81392C45.0266 3.81392 44.7752 3.89489 44.5707 4.05682C44.3661 4.21591 44.2113 4.4375 44.1062 4.72159C44.0011 5.00568 43.9485 5.33381 43.9485 5.70597C43.9485 6.08381 44.0011 6.41051 44.1062 6.68608C44.2141 6.95881 44.369 7.17045 44.5707 7.32102C44.7752 7.46875 45.0266 7.54261 45.3249 7.54261Z" fill="white"/>
</svg>
